<svg width="15" height="14" viewBox="0 0 15 14" fill="none" xmlns="http://www.w3.org/2000/svg">
<path d="M12.083 1.88694C11.288 1.09294 10.353 0.527941 9.35601 0.189941V2.32494C9.83601 2.56394 10.291 2.87494 10.69 3.27494C12.683 5.26894 12.683 8.51094 10.69 10.5039C8.69701 12.4939 5.45701 12.4939 3.46101 10.5039C1.47001 8.50894 1.47001 5.26894 3.46101 3.27494C3.46601 3.26894 3.48201 3.25894 3.48901 3.24994H3.49101L4.67201 4.42894L4.66501 0.684941L0.923006 0.679941L2.09901 1.85594C2.09201 1.86794 2.08101 1.87994 2.07201 1.88694C-0.690994 4.64894 -0.690994 9.12994 2.07201 11.8919C4.83901 14.6569 9.31701 14.6569 12.083 11.8919C14.844 9.12994 14.847 4.64894 12.083 1.88694Z" fill="#93CB5C"/>
</svg>
